<?xml version="1.0" encoding="utf-8"?>
<!-- Generator: Adobe Illustrator 21.1.0, SVG Export Plug-In . SVG Version: 6.00 Build 0)  -->
<svg version="1.1" xmlns="http://www.w3.org/2000/svg" xmlns:xlink="http://www.w3.org/1999/xlink" x="0px" y="0px"
	 viewBox="0 0 657 369" style="enable-background:new 0 0 657 369;" xml:space="preserve">
<style type="text/css">
	.st0{fill:#FFFFFF;stroke:#CCCCCC;stroke-width:8;stroke-miterlimit:10;}
	.st1{fill:none;stroke:#CCCCCC;stroke-width:8;stroke-miterlimit:10;}
	#details{
	    display:block;
	}
	@media screen and (max-width:150px) {
	#detials {
	display: none;
	}
	}
</style>
<g id="step">
	<circle class="st0" cx="180" cy="180" r="108"/>
	<circle class="st0" cx="180" cy="180" r="108"/>
	<g>
		
			<ellipse transform="matrix(0.7071 -0.7071 0.7071 0.7071 -59.175 144.0906)" class="st0" cx="144.3" cy="143.5" rx="34.7" ry="34.7"/>
		<path class="st0" d="M128.8,159c-8.6-8.6-8.6-22.5,0-31"/>
		<path class="st0" d="M240.4,225.7c3.9,3.9,3.8,10.2-0.1,14.1l0,0c-3.9,3.9-10.2,3.9-14.1,0.1l-62.7-62.7c-4.2-4.2,3.3-3.3,7.2-7.2
			l0,0c3.9-3.9,2.7-11.2,7-7L240.4,225.7z"/>
		<path class="st0" d="M177.7,191.2l-14.1-14.1c-4.2-4.2,3.3-3.3,7.2-7.2l0,0c3.9-3.9,2.7-11.2,7-7l14.1,14.1L177.7,191.2z"/>
	</g>
</g>
<g id="back">
	<circle class="st0" cx="469" cy="180" r="108"/>
	<path class="st0" d="M522,229.3c0,7.6-4.6,13.7-10.3,13.7h-87.4c-5.7,0-10.3-6.1-10.3-13.7v-3.4c0-7.6,4.6-13.9,10.3-13.9h87.4
		c5.7,0,10.3,6.3,10.3,13.9V229.3z"/>
	<line class="st1" x1="453" y1="228" x2="507" y2="228"/>
	<path class="st0" d="M522,181.7c0,7.6-4.6,13.3-10.3,13.3h-87.4c-5.7,0-10.3-5.7-10.3-13.3v-3.4c0-7.6,4.6-13.3,10.3-13.3h87.4
		c5.7,0,10.3,5.7,10.3,13.3V181.7z"/>
	<line class="st1" x1="453" y1="180" x2="507" y2="180"/>
	<path class="st0" d="M522,134.1c0,7.6-4.6,13.9-10.3,13.9h-87.4c-5.7,0-10.3-6.3-10.3-13.9v-3.4c0-7.6,4.6-13.7,10.3-13.7h87.4
		c5.7,0,10.3,6.1,10.3,13.7V134.1z"/>
	<line class="st1" x1="453" y1="132" x2="507" y2="132"/>
</g>
</svg>
